<?xml version="1.0" encoding="utf-8"?>
<!-- Generator: Adobe Illustrator 23.0.6, SVG Export Plug-In . SVG Version: 6.00 Build 0)  -->
<svg version="1.1" id="Layer_1" xmlns="http://www.w3.org/2000/svg" xmlns:xlink="http://www.w3.org/1999/xlink" x="0px" y="0px"
	 viewBox="0 0 112 15" style="enable-background:new 0 0 112 15;" xml:space="preserve">
<g>
	<path d="M11.82,3.79v1.53H8.42c-0.85,0-1.47,0.22-1.85,0.67S5.99,7.17,5.99,8.18c0,1.01,0.19,1.73,0.57,2.18
		c0.38,0.45,1,0.67,1.86,0.67h3.39v1.53H8.42c-1.28,0-2.26-0.36-2.94-1.08c-0.68-0.72-1.02-1.82-1.02-3.3
		c0-1.48,0.34-2.58,1.02-3.31c0.68-0.72,1.66-1.09,2.94-1.09H11.82z"/>
	<path d="M21.1,3.79c1.28,0,2.26,0.36,2.94,1.09c0.68,0.73,1.02,1.83,1.02,3.31c0,1.47-0.34,2.57-1.02,3.29
		c-0.68,0.72-1.66,1.08-2.94,1.08h-1.2c-1.28,0-2.26-0.36-2.94-1.08c-0.68-0.72-1.02-1.82-1.02-3.29c0-1.48,0.34-2.59,1.02-3.31
		c0.68-0.73,1.66-1.09,2.94-1.09H21.1z M19.9,5.32c-0.85,0-1.47,0.23-1.85,0.68s-0.58,1.18-0.58,2.2c0,1.01,0.19,1.73,0.57,2.17
		c0.38,0.44,1,0.66,1.86,0.66h1.2c0.84,0,1.45-0.22,1.84-0.67c0.39-0.45,0.58-1.17,0.58-2.18c0-1-0.19-1.73-0.57-2.18
		s-1-0.68-1.85-0.68H19.9z"/>
	<path d="M31.13,12.56H29.6V5.54c0-0.57,0.16-1.03,0.49-1.38c0.33-0.35,0.84-0.53,1.52-0.53c0.61,0,1.07,0.15,1.38,0.44
		c0.32,0.29,0.57,0.69,0.75,1.19l2.56,5.6c0.05,0.1,0.12,0.19,0.21,0.26c0.09,0.07,0.2,0.1,0.35,0.1c0.16,0,0.29-0.04,0.38-0.14
		c0.09-0.09,0.14-0.21,0.14-0.36V3.79h1.55v7.01c0,0.58-0.17,1.05-0.5,1.4c-0.33,0.35-0.84,0.53-1.51,0.53
		c-0.3,0-0.57-0.04-0.8-0.11c-0.23-0.07-0.43-0.18-0.6-0.33c-0.17-0.14-0.31-0.31-0.44-0.51c-0.12-0.2-0.23-0.42-0.31-0.68
		l-2.56-5.6c-0.11-0.25-0.29-0.38-0.55-0.38c-0.17,0-0.31,0.05-0.4,0.14c-0.09,0.09-0.14,0.21-0.14,0.37V12.56z"/>
	<path d="M49.76,3.79v1.53H47.2v7.24h-1.55V5.32h-2.56V3.79H49.76z"/>
	<path d="M53.91,12.56h-1.69l3.08-7.8c0.16-0.42,0.4-0.71,0.7-0.88c0.3-0.17,0.68-0.25,1.15-0.25c0.46,0,0.84,0.08,1.14,0.25
		c0.3,0.17,0.53,0.46,0.68,0.88l2.96,7.8h-1.7L57.56,5.5c-0.08-0.2-0.22-0.3-0.43-0.3c-0.21,0-0.36,0.1-0.44,0.3L53.91,12.56z"/>
	<path d="M72.75,3.79v1.53h-4.5c-0.4,0-0.69,0.1-0.87,0.29c-0.18,0.2-0.27,0.44-0.27,0.75c0,0.13,0.02,0.26,0.06,0.38
		s0.11,0.24,0.21,0.34c0.1,0.1,0.23,0.18,0.4,0.23c0.16,0.06,0.38,0.08,0.64,0.08h2.05c0.6,0,1.09,0.08,1.47,0.23
		c0.38,0.15,0.68,0.35,0.9,0.59c0.22,0.24,0.37,0.52,0.46,0.83c0.08,0.31,0.12,0.62,0.12,0.94c0,0.37-0.05,0.72-0.16,1.03
		c-0.1,0.31-0.27,0.58-0.49,0.81c-0.22,0.23-0.51,0.41-0.86,0.54c-0.35,0.13-0.78,0.2-1.28,0.2h-4.89v-1.53h4.94
		c0.42,0,0.72-0.1,0.92-0.3c0.19-0.2,0.29-0.47,0.29-0.79c0-0.14-0.02-0.27-0.06-0.41c-0.04-0.13-0.12-0.25-0.22-0.35
		c-0.1-0.1-0.24-0.18-0.42-0.24s-0.4-0.09-0.67-0.09h-2.04c-0.59,0-1.07-0.07-1.44-0.22c-0.37-0.15-0.67-0.34-0.88-0.58
		c-0.21-0.24-0.36-0.52-0.44-0.82c-0.08-0.3-0.12-0.61-0.12-0.91c0-0.36,0.05-0.7,0.15-1.01c0.1-0.31,0.26-0.57,0.48-0.8
		c0.22-0.23,0.5-0.4,0.85-0.53s0.76-0.19,1.25-0.19H72.75z"/>
	<path d="M82.64,3.79c1.28,0,2.26,0.36,2.94,1.09c0.68,0.73,1.02,1.83,1.02,3.31c0,1.47-0.34,2.57-1.02,3.29
		c-0.68,0.72-1.66,1.08-2.94,1.08h-1.2c-1.28,0-2.26-0.36-2.94-1.08c-0.68-0.72-1.02-1.82-1.02-3.29c0-1.48,0.34-2.59,1.02-3.31
		c0.68-0.73,1.66-1.09,2.94-1.09H82.64z M81.44,5.32c-0.85,0-1.47,0.23-1.85,0.68s-0.58,1.18-0.58,2.2c0,1.01,0.19,1.73,0.57,2.17
		c0.38,0.44,1,0.66,1.86,0.66h1.2c0.84,0,1.45-0.22,1.84-0.67s0.58-1.17,0.58-2.18c0-1-0.19-1.73-0.57-2.18
		c-0.38-0.45-1-0.68-1.85-0.68H81.44z"/>
	<path d="M97.96,3.79v1.53h-3.54c-0.35,0-0.64,0.04-0.87,0.12s-0.42,0.18-0.56,0.32c-0.14,0.13-0.24,0.29-0.29,0.47
		S92.61,6.6,92.61,6.8v0.83h5.29v1.46h-5.29v3.47h-1.53V6.82c0-0.44,0.06-0.85,0.17-1.22c0.12-0.37,0.31-0.69,0.57-0.96
		c0.26-0.27,0.6-0.48,1.01-0.63c0.41-0.15,0.91-0.23,1.49-0.23H97.96z"/>
	<path d="M108.5,3.79v1.53h-2.56v7.24h-1.55V5.32h-2.56V3.79H108.5z"/>
</g>
<g>
</g>
<g>
</g>
<g>
</g>
<g>
</g>
<g>
</g>
<g>
</g>
</svg>
